{
    "asset" : {
        "generator" : "Khronos glTF Blender I/O v1.1.45",
        "version" : "2.0"
    },
    "scene" : 0,
    "scenes" : [
        {
            "name" : "Scene",
            "nodes" : [
                0
            ]
        }
    ],
    "nodes" : [
        {
            "mesh" : 0,
            "name" : "9.0.243.0",
            "rotation" : [
                -0.002145032398402691,
                -0.7071034908294678,
                -0.0021450461354106665,
                0.7071035504341125
            ],
            "scale" : [
                0.5802339315414429,
                0.5802339315414429,
                0.5802339315414429
            ],
            "translation" : [
                -1.330918312072754,
                0.36533796787261963,
                0.11342880129814148
            ]
        }
    ],
    "materials" : [
        {
            "doubleSided" : true,
            "emissiveFactor" : [
                0,
                0,
                0
            ],
            "name" : "material1",
            "pbrMetallicRoughness" : {
                "baseColorTexture" : {
                    "index" : 0,
                    "texCoord" : 0
                },
                "metallicFactor" : 0.29197078943252563,
                "roughnessFactor" : 0.16170033812522888
            }
        },
        {
            "doubleSided" : true,
            "emissiveFactor" : [
                0.006734179332852364,
                0.006734179332852364,
                0.006734179332852364
            ],
            "name" : "material2",
            "pbrMetallicRoughness" : {
                "baseColorTexture" : {
                    "index" : 1,
                    "texCoord" : 0
                },
                "metallicFactor" : 0,
                "roughnessFactor" : 0.6037137508392334
            }
        }
    ],
    "meshes" : [
        {
            "name" : "9.0.243.0",
            "primitives" : [
                {
                    "attributes" : {
                        "POSITION" : 0,
                        "NORMAL" : 1,
                        "TEXCOORD_0" : 2
                    },
                    "indices" : 3,
                    "material" : 0
                },
                {
                    "attributes" : {
                        "POSITION" : 4,
                        "NORMAL" : 5,
                        "TEXCOORD_0" : 6
                    },
                    "indices" : 7,
                    "material" : 1
                }
            ]
        }
    ],
    "textures" : [
        {
            "source" : 0
        },
        {
            "source" : 1
        }
    ],
    "images" : [
        {
            "bufferView" : 4,
            "mimeType" : "image/jpeg",
            "name" : "metal02"
        },
        {
            "bufferView" : 9,
            "mimeType" : "image/jpeg",
            "name" : "metal01"
        }
    ],
    "accessors" : [
        {
            "bufferView" : 0,
            "componentType" : 5126,
            "count" : 287,
            "max" : [
                0.20321199297904968,
                1.913092017173767,
                -6.878015041351318
            ],
            "min" : [
                -0.6805930137634277,
                -0.515330970287323,
                -8.862835884094238
            ],
            "type" : "VEC3"
        },
        {
            "bufferView" : 1,
            "componentType" : 5126,
            "count" : 287,
            "type" : "VEC3"
        },
        {
            "bufferView" : 2,
            "componentType" : 5126,
            "count" : 287,
            "type" : "VEC2"
        },
        {
            "bufferView" : 3,
            "componentType" : 5123,
            "count" : 1092,
            "type" : "SCALAR"
        },
        {
            "bufferView" : 5,
            "componentType" : 5126,
            "count" : 72,
            "max" : [
                0.1519480049610138,
                0.3188149929046631,
                10.1224946975708
            ],
            "min" : [
                -0.627623975276947,
                -0.6325939893722534,
                -6.886776924133301
            ],
            "type" : "VEC3"
        },
        {
            "bufferView" : 6,
            "componentType" : 5126,
            "count" : 72,
            "type" : "VEC3"
        },
        {
            "bufferView" : 7,
            "componentType" : 5126,
            "count" : 72,
            "type" : "VEC2"
        },
        {
            "bufferView" : 8,
            "componentType" : 5123,
            "count" : 264,
            "type" : "SCALAR"
        }
    ],
    "bufferViews" : [
        {
            "buffer" : 0,
            "byteLength" : 3444,
            "byteOffset" : 0
        },
        {
            "buffer" : 0,
            "byteLength" : 3444,
            "byteOffset" : 3444
        },
        {
            "buffer" : 0,
            "byteLength" : 2296,
            "byteOffset" : 6888
        },
        {
            "buffer" : 0,
            "byteLength" : 2184,
            "byteOffset" : 9184
        },
        {
            "buffer" : 0,
            "byteLength" : 222005,
            "byteOffset" : 11368
        },
        {
            "buffer" : 0,
            "byteLength" : 864,
            "byteOffset" : 233376
        },
        {
            "buffer" : 0,
            "byteLength" : 864,
            "byteOffset" : 234240
        },
        {
            "buffer" : 0,
            "byteLength" : 576,
            "byteOffset" : 235104
        },
        {
            "buffer" : 0,
            "byteLength" : 528,
            "byteOffset" : 235680
        },
        {
            "buffer" : 0,
            "byteLength" : 317261,
            "byteOffset" : 236208
        }
    ],
    "buffers" : [
        {
            "byteLength" : 553472,
            "uri" : "data:application/octet-stream;base64,"
        }
    ]
}
