# Blender v2.79 (sub 0) OBJ File: 'syringe.blend'
# www.blender.org
mtllib syringe-push.mtl
o sy_Shape_1.001
v -0.814047 1.041608 0.343334
v -0.809243 0.855604 0.464939
v -0.814562 0.855287 0.394212
v -0.808631 1.077254 0.404414
v -0.815520 0.668491 0.345114
v -0.811746 0.470150 0.244840
v -0.816666 0.531273 0.209195
v -0.810384 0.633388 0.406531
v -0.814113 1.177529 0.206113
v -0.808710 1.238948 0.241174
v -0.814743 1.226630 0.019317
v -0.809459 1.297360 0.018957
v -0.810679 1.236839 -0.202692
v -0.815768 1.175756 -0.167002
v -0.816913 1.038537 -0.302921
v -0.812041 1.073601 -0.364383
v -0.817872 0.851741 -0.352019
v -0.813182 0.851385 -0.422791
v -0.818387 0.665421 -0.301141
v -0.813794 0.629735 -0.362266
v -0.818321 0.529500 -0.163920
v -0.813716 0.468040 -0.199025
v -0.817691 0.480398 0.022876
v -0.812966 0.409628 0.023191
v -1.474300 1.073872 -0.357326
v -1.475429 0.854038 -0.415108
v -1.470736 0.856113 0.023988
v -1.470926 1.077486 0.403231
v -1.471532 0.858211 0.463108
v -1.471004 1.237447 0.241740
v -1.471746 1.295233 0.021906
v -1.472952 1.235360 -0.197368
v -1.476035 0.634763 -0.355232
v -1.475956 0.474802 -0.193741
v -1.475215 0.417016 0.026094
v -1.474009 0.476888 0.245367
v -1.472661 0.638377 0.405326
v -1.237382 1.077294 0.403460
v -1.237990 0.857290 0.463536
v -1.239122 0.636726 0.405561
v -1.240474 0.474700 0.245072
v -1.237460 1.237787 0.241432
v -1.238204 1.295765 0.020867
v -1.239414 1.235694 -0.199135
v -1.240767 1.073668 -0.359625
v -1.241899 0.853103 -0.417600
v -1.242507 0.633100 -0.357524
v -1.242428 0.472607 -0.195496
v -1.241684 0.414629 0.025069
v -1.237867 0.856969 0.396223
v -1.146306 1.043285 0.345415
v -1.237352 1.043360 0.345326
v -1.146822 0.856610 0.396389
v -1.238827 0.670102 0.347106
v -1.147783 0.669459 0.347198
v -1.239972 0.532832 0.211136
v -1.148930 0.531979 0.211021
v -1.240998 0.481938 0.024746
v -1.149957 0.481008 0.024347
v -1.241628 0.531059 -0.162120
v -1.150589 0.530203 -0.162805
v -1.241695 0.667031 -0.299393
v -1.150655 0.666382 -0.300287
v -1.241179 0.853422 -0.350290
v -1.150139 0.853057 -0.351261
v -1.240220 1.040288 -0.301173
v -1.149179 1.040209 -0.302070
v -1.239075 1.177558 -0.165203
v -1.148031 1.177688 -0.165893
v -1.238049 1.228452 0.021186
v -1.147004 1.228660 0.020781
v -1.237419 1.179332 0.208053
v -1.146373 1.179465 0.207933
v -1.146807 0.856930 0.463586
v -1.146198 1.077160 0.403449
v -1.147940 0.636139 0.405552
v -1.149294 0.473946 0.244897
v -1.146277 1.237819 0.241254
v -1.147022 1.295857 0.020462
v -1.148233 1.235723 -0.199767
v -1.149587 1.073531 -0.360422
v -1.150720 0.852739 -0.418456
v -1.151329 0.632509 -0.358319
v -1.151250 0.471851 -0.196124
v -1.150506 0.413813 0.024669
v 5.687619 1.036203 0.349589
v -0.814047 1.041607 0.343335
v -0.814562 0.855286 0.394213
v 5.687048 0.829660 0.405989
v 5.685986 0.622592 0.351561
v -0.815521 0.668491 0.345114
v -0.816666 0.531272 0.209196
v 5.684716 0.470480 0.200891
v 5.687546 1.186876 0.197475
v -0.814113 1.177528 0.206114
v 5.686847 1.241307 -0.009595
v -0.814744 1.226630 0.019318
v 5.685711 1.184911 -0.216136
v -0.815769 1.175755 -0.167001
v 5.684441 1.032799 -0.366806
v -0.816914 1.038536 -0.302920
v 5.683378 0.825730 -0.421233
v -0.817873 0.851740 -0.352018
v 5.682807 0.619188 -0.364833
v -0.818388 0.665420 -0.301140
v 5.682881 0.468515 -0.212720
v -0.818321 0.529499 -0.163920
v 5.683580 0.414084 -0.005650
v -0.817691 0.480397 0.022877
v 5.928111 1.539907 -0.012083
v 5.929316 1.446055 0.344954
v 5.929443 1.186258 0.607235
v 5.928459 0.830131 0.704481
v 5.926153 1.442666 -0.368210
v 5.926626 0.473093 0.610636
v 5.923963 1.180389 -0.628001
v 5.924437 0.210817 0.350845
v 5.922131 0.823353 -0.721846
v 5.922478 0.113577 -0.005281
v 5.921145 0.467224 -0.624600
v 5.921273 0.207429 -0.362319
v 5.732300 0.829981 0.510788
v 5.781676 1.104970 0.467623
v 5.733016 1.088956 0.440071
v 5.780915 0.829942 0.542724
v 5.699378 0.829882 0.462834
v 5.700029 1.064838 0.398675
v 5.781579 1.305604 0.265070
v 5.732924 1.277877 0.249343
v 5.732048 1.346126 -0.010293
v 5.779135 1.302987 -0.285688
v 5.730623 1.275413 -0.269266
v 5.780648 1.378083 -0.010661
v 5.699150 1.298156 -0.009919
v 5.697857 1.234002 -0.244873
v 5.777444 1.100438 -0.486317
v 5.729031 1.084687 -0.458184
v 5.727699 0.825053 -0.526428
v 5.775270 0.549679 -0.483690
v 5.726983 0.566079 -0.455711
v 5.776030 0.824708 -0.558792
v 5.695204 0.825411 -0.478184
v 5.694555 0.590456 -0.414026
v 5.775367 0.349045 -0.281138
v 5.727075 0.377157 -0.264982
v 5.727951 0.308909 -0.005346
v 5.777810 0.351662 0.269620
v 5.729375 0.379621 0.253626
v 5.776297 0.276566 -0.005407
v 5.695433 0.357137 -0.005431
v 5.696726 0.421291 0.229522
v 5.779501 0.554212 0.470250
v 5.730968 0.570347 0.442545
v 5.698170 0.594328 0.400919
v 5.687047 0.829660 0.405989
v 5.687619 1.036202 0.349589
v 5.685985 0.622591 0.351562
v 5.684715 0.470479 0.200892
v 5.683579 0.414084 -0.005649
v 5.682881 0.468514 -0.212719
v 5.694638 0.419056 -0.240986
v 5.682806 0.619187 -0.364833
v 5.683378 0.825729 -0.421233
v 5.684440 1.032799 -0.366806
v 5.696413 1.060966 -0.416270
v 5.685709 1.184911 -0.216136
v 5.686846 1.241306 -0.009595
v 5.687545 1.186876 0.197476
v 5.699945 1.236238 0.225636
v 5.854088 0.830296 0.677653
v 5.855035 1.172864 0.584110
v 5.800809 0.830228 0.619241
v 5.801675 1.143509 0.533694
v 5.854914 1.422767 0.331816
v 5.853755 1.513045 -0.011626
v 5.851870 1.419508 -0.354191
v 5.800504 1.454609 -0.011112
v 5.798780 1.369068 -0.324392
v 5.849764 1.167218 -0.604090
v 5.848001 0.823777 -0.694362
v 5.847055 0.481209 -0.600818
v 5.795243 0.824266 -0.635481
v 5.794377 0.510984 -0.549934
v 5.847177 0.231306 -0.348525
v 5.848335 0.141028 -0.005083
v 5.850220 0.234565 0.337482
v 5.795548 0.199885 -0.005128
v 5.797272 0.285426 0.308151
v 5.852326 0.486855 0.587381
v 5.799198 0.516148 0.536686
v 5.794488 0.282445 -0.319210
v 5.796854 1.138346 -0.552927
v 5.801563 1.372048 0.302969
v -1.474300 1.073872 -0.357326
v -1.475429 0.854038 -0.415108
v -0.808631 1.077254 0.404414
v -0.808710 1.238948 0.241174
v -1.149587 1.073531 -0.360422
v -1.150720 0.852739 -0.418456
v 5.926626 0.473093 0.610636
v 5.924437 0.210817 0.350845
v -1.471532 0.858211 0.463108
v -1.472661 0.638377 0.405326
v -1.241695 0.667031 -0.299393
v -1.241179 0.853422 -0.350290
v 5.781676 1.104970 0.467623
v 5.781579 1.305604 0.265070
v -1.471746 1.295233 0.021906
v -1.472952 1.235360 -0.197368
v -1.150589 0.530203 -0.162805
v -1.150655 0.666382 -0.300287
v -1.151329 0.632509 -0.358319
v -1.151250 0.471851 -0.196124
v -1.147004 1.228660 0.020781
v -1.146373 1.179465 0.207933
v -1.237867 0.856969 0.396223
v -1.238827 0.670102 0.347106
v -1.241628 0.531059 -0.162120
v 5.926153 1.442666 -0.368210
v 5.923963 1.180389 -0.628001
v 5.777444 1.100438 -0.486317
v 5.776030 0.824708 -0.558792
v 5.780915 0.829942 0.542724
v 5.779501 0.554212 0.470250
v -1.237382 1.077294 0.403460
v -1.237460 1.237787 0.241432
v -1.237352 1.043360 0.345326
v -0.813794 0.629735 -0.362266
v -0.813716 0.468040 -0.199025
v -1.476035 0.634763 -0.355232
v 5.779135 1.302987 -0.285688
v 5.780648 1.378083 -0.010661
v -0.811746 0.470150 0.244840
v -0.810384 0.633388 0.406531
v -1.146198 1.077160 0.403449
v -1.146277 1.237819 0.241254
v -1.471004 1.237447 0.241740
v -1.238049 1.228452 0.021186
v -1.237419 1.179332 0.208053
v -1.237990 0.857290 0.463536
v -1.239122 0.636726 0.405561
v 5.928111 1.539907 -0.012083
v -1.148031 1.177688 -0.165893
v -1.240474 0.474700 0.245072
v -1.239075 1.177558 -0.165203
v -1.149294 0.473946 0.244897
v -1.150506 0.413813 0.024669
v -1.146807 0.856930 0.463586
v -0.813182 0.851385 -0.422791
v -0.809459 1.297360 0.018957
v -0.810679 1.236839 -0.202692
v -1.147940 0.636139 0.405552
v -1.238204 1.295765 0.020867
v -0.812041 1.073601 -0.364383
v 5.929316 1.446055 0.344954
v -1.239414 1.235694 -0.199135
v 5.775270 0.549679 -0.483690
v -1.150139 0.853057 -0.351261
v -1.149179 1.040209 -0.302070
v 5.929443 1.186258 0.607235
v -1.147022 1.295857 0.020462
v -1.148233 1.235723 -0.199767
v -1.240767 1.073668 -0.359625
v -1.240220 1.040288 -0.301173
v 5.921145 0.467224 -0.624600
v 5.921273 0.207429 -0.362319
v -1.239972 0.532832 0.211136
v 5.775367 0.349045 -0.281138
v -1.242507 0.633100 -0.357524
v -1.242428 0.472607 -0.195496
v -1.147783 0.669459 0.347198
v -1.148930 0.531979 0.211021
v -1.241684 0.414629 0.025069
v -1.475956 0.474802 -0.193741
v -1.475215 0.417016 0.026094
v 5.922478 0.113577 -0.005281
v -1.474009 0.476888 0.245367
v -1.149957 0.481008 0.024347
v -0.812966 0.409628 0.023191
v 5.777810 0.351662 0.269620
v 5.776297 0.276566 -0.005407
v -1.240998 0.481938 0.024746
v 5.922131 0.823353 -0.721846
v -1.241899 0.853103 -0.417600
v -1.146306 1.043285 0.345415
v 5.928459 0.830131 0.704481
v -0.809243 0.855604 0.464939
v -1.146822 0.856610 0.396389
v -1.470926 1.077486 0.403231
vn 0.9971 -0.0395 -0.0653
vn 0.9972 -0.0043 -0.0750
vn 0.9973 0.0310 -0.0657
vn 0.9976 0.0569 -0.0399
vn 0.9971 -0.0652 -0.0394
vn 0.9972 -0.0745 -0.0041
vn 0.9974 -0.0649 0.0312
vn 0.9976 -0.0389 0.0569
vn 0.9978 -0.0036 0.0661
vn 0.9979 0.0316 0.0565
vn 0.9979 0.0573 0.0305
vn 0.9977 0.0666 -0.0047
vn -0.9999 0.0009 0.0098
vn -0.9999 0.0040 0.0107
vn -1.0000 0.0040 0.0044
vn -1.0000 0.0008 -0.0010
vn -1.0000 0.0039 -0.0018
vn -1.0000 -0.0014 0.0013
vn -1.0000 -0.0023 0.0044
vn -1.0000 -0.0014 0.0075
vn -0.9999 0.0071 0.0098
vn -0.9999 0.0094 0.0075
vn -0.9999 0.0102 0.0044
vn -0.9999 0.0093 0.0013
vn -1.0000 0.0070 -0.0010
vn -0.0004 0.5041 0.8636
vn -0.0018 0.0048 1.0000
vn -0.0074 -0.8636 0.5041
vn -0.0044 -0.4958 0.8684
vn -0.0006 0.8684 0.4959
vn -0.0023 1.0000 -0.0047
vn -0.0050 0.8636 -0.5041
vn -0.0081 0.4959 -0.8683
vn -0.0107 -0.0047 -0.9999
vn -0.0121 -0.5040 -0.8636
vn -0.0119 -0.8683 -0.4958
vn -0.0102 -0.9999 0.0048
vn 1.0000 -0.0039 0.0018
vn 1.0000 -0.0008 0.0010
vn 1.0000 -0.0070 0.0010
vn 0.9999 -0.0094 -0.0013
vn 0.9999 -0.0102 -0.0044
vn 0.9999 -0.0094 -0.0075
vn 0.9999 -0.0071 -0.0098
vn 0.9999 -0.0040 -0.0107
vn 0.9999 -0.0009 -0.0098
vn 1.0000 0.0014 -0.0075
vn 1.0000 0.0023 -0.0044
vn 1.0000 0.0014 -0.0013
vn -1.0000 0.0018 0.0008
vn -1.0000 0.0039 0.0002
vn -1.0000 0.0060 0.0007
vn -0.9999 0.0076 0.0023
vn -1.0000 0.0003 0.0023
vn -1.0000 -0.0002 0.0044
vn -1.0000 0.0003 0.0065
vn -0.9999 0.0019 0.0081
vn -0.9999 0.0040 0.0086
vn -0.9999 0.0061 0.0080
vn -0.9999 0.0076 0.0065
vn -0.9999 0.0082 0.0044
vn -0.0026 0.5041 0.8636
vn -0.0040 0.0048 1.0000
vn -0.0065 -0.4958 0.8684
vn -0.0096 -0.8636 0.5041
vn -0.0028 0.8684 0.4959
vn -0.0045 1.0000 -0.0047
vn -0.0072 0.8636 -0.5040
vn -0.0103 0.4959 -0.8683
vn -0.0128 -0.0047 -0.9999
vn -0.0142 -0.5040 -0.8636
vn -0.0140 -0.8683 -0.4958
vn -0.0124 -0.9999 0.0048
vn -0.0043 -0.4958 0.8684
vn -0.0120 -0.5040 -0.8636
vn -0.0118 -0.8683 -0.4958
vn 1.0000 -0.0039 -0.0044
vn 1.0000 -0.0040 -0.0044
vn -0.6842 0.0062 0.7293
vn -0.5479 0.4223 0.7221
vn -0.6832 0.3688 0.6302
vn -0.5490 0.0061 0.8358
vn -0.9062 0.0056 0.4228
vn -0.9056 0.2147 0.3657
vn -0.5480 0.7259 0.4157
vn -0.6833 0.6334 0.3631
vn -0.6845 0.7290 -0.0004
vn -0.5517 0.7219 -0.4176
vn -0.6865 0.6300 -0.3631
vn -0.5494 0.8355 -0.0015
vn -0.9064 0.4224 0.0020
vn -0.9075 0.3653 -0.2071
vn -0.5542 0.4154 -0.7212
vn -0.6887 0.3629 -0.6276
vn -0.6906 -0.0007 -0.7232
vn -0.5575 -0.4179 -0.7172
vn -0.6916 -0.3634 -0.6242
vn -0.5564 -0.0017 -0.8309
vn -0.9099 0.0016 -0.4148
vn -0.9105 -0.2075 -0.3576
vn -0.5574 -0.7215 -0.4108
vn -0.6915 -0.6279 -0.3571
vn -0.6902 -0.7235 0.0065
vn -0.5537 -0.7175 0.4225
vn -0.6883 -0.6245 0.3692
vn -0.5560 -0.8311 0.0064
vn -0.9097 -0.4152 0.0060
vn -0.9085 -0.3581 0.2151
vn -0.5511 -0.4111 0.7261
vn -0.6860 -0.3574 0.6337
vn -0.9073 -0.2040 0.3677
vn -0.9772 0.0049 0.2120
vn -0.9770 0.1086 0.1837
vn -0.9778 -0.0991 0.1846
vn -0.9784 -0.1755 0.1090
vn -0.9790 -0.2037 0.0053
vn -0.9793 -0.1764 -0.0986
vn -0.9104 -0.3601 -0.2037
vn -0.9794 -0.1008 -0.1750
vn -0.9791 0.0029 -0.2033
vn -0.9785 0.1068 -0.1760
vn -0.9088 0.2112 -0.3597
vn -0.9779 0.1832 -0.1003
vn -0.9774 0.2115 0.0033
vn -0.9770 0.1842 0.1073
vn -0.9057 0.3673 0.2117
vn -0.5376 0.0061 0.8432
vn -0.3380 0.4748 0.8126
vn -0.5364 0.4260 0.7285
vn -0.3393 0.0058 0.9406
vn -0.8622 0.0058 0.5065
vn -0.8615 0.2568 0.4379
vn -0.3382 0.8169 0.4672
vn -0.5366 0.7323 0.4193
vn -0.5380 0.8429 -0.0016
vn -0.3423 0.8124 -0.4719
vn -0.5403 0.7283 -0.4215
vn -0.3398 0.9405 -0.0030
vn -0.8625 0.5061 0.0014
vn -0.8639 0.4375 -0.2496
vn -0.3452 0.4671 -0.8140
vn -0.5429 0.4191 -0.7277
vn -0.5450 -0.0018 -0.8384
vn -0.3489 -0.4721 -0.8095
vn -0.5462 -0.4217 -0.7237
vn -0.3476 -0.0031 -0.9376
vn -0.8667 0.0010 -0.4988
vn -0.8674 -0.2499 -0.4303
vn -0.3488 -0.8142 -0.4642
vn -0.5460 -0.7280 -0.4145
vn -0.5446 -0.8386 0.0064
vn -0.3446 -0.8097 0.4750
vn -0.5423 -0.7240 0.4263
vn -0.3472 -0.9378 0.0060
vn -0.8665 -0.4992 0.0062
vn -0.8650 -0.4307 0.2572
vn -0.3417 -0.4643 0.8170
vn -0.5398 -0.4148 0.7325
vn -0.8635 -0.2458 0.4403
vn -0.9678 0.0050 0.2516
vn -0.9675 0.1285 0.2179
vn -0.9684 -0.1188 0.2190
vn -0.9692 -0.2098 0.1289
vn -0.9699 -0.2435 0.0054
vn -0.9703 -0.2109 -0.1184
vn -0.8673 -0.4331 -0.2454
vn -0.9703 -0.1208 -0.2093
vn -0.9700 0.0027 -0.2430
vn -0.9694 0.1265 -0.2105
vn -0.8654 0.2527 -0.4327
vn -0.9686 0.2174 -0.1204
vn -0.9679 0.2512 0.0031
vn -0.9675 0.2186 0.1269
vn -0.8616 0.4399 0.2531
usemtl syringeMtl7
s 1
f 1//1 2//2 3//2
f 196//1 2//2 1//1
f 5//3 6//4 7//4
f 234//3 6//4 5//3
f 2//2 234//3 5//3
f 3//2 2//2 5//3
f 9//5 196//1 1//1
f 197//5 196//1 9//5
f 11//6 197//5 9//5
f 250//6 197//5 11//6
f 251//7 250//6 11//6
f 14//7 251//7 11//6
f 15//8 251//7 14//7
f 254//8 251//7 15//8
f 17//9 254//8 15//8
f 18//9 254//8 17//9
f 19//10 18//9 17//9
f 228//10 18//9 19//10
f 228//10 19//10 21//11
f 229//11 228//10 21//11
f 21//11 23//12 24//12
f 229//11 21//11 24//12
f 7//4 24//12 23//12
f 6//4 24//12 7//4
f 194//13 195//14 27//15
f 28//16 27//15 202//17
f 237//18 27//15 28//16
f 208//19 27//15 237//18
f 209//20 27//15 208//19
f 209//20 194//13 27//15
f 195//14 33//21 27//15
f 27//15 33//21 34//22
f 27//15 34//22 35//23
f 27//15 35//23 36//24
f 27//15 36//24 203//25
f 27//15 203//25 202//17
f 38//26 289//26 29//27
f 240//27 38//26 29//27
f 277//28 40//29 37//29
f 244//28 40//29 277//28
f 37//29 240//27 29//27
f 40//29 240//27 37//29
f 289//26 226//30 30//30
f 38//26 226//30 289//26
f 30//30 43//31 31//31
f 226//30 43//31 30//30
f 31//31 44//32 32//32
f 43//31 44//32 31//31
f 45//33 25//33 32//32
f 44//32 45//33 32//32
f 25//33 46//34 26//34
f 45//33 46//34 25//33
f 26//34 269//35 230//35
f 46//34 269//35 26//34
f 230//35 270//36 274//36
f 269//35 270//36 230//35
f 49//37 275//37 274//36
f 270//36 49//37 274//36
f 275//37 244//28 277//28
f 49//37 244//28 275//37
f 50//27 51//26 52//26
f 288//27 51//26 50//27
f 217//29 288//27 50//27
f 55//29 288//27 217//29
f 267//28 55//29 217//29
f 57//28 55//29 267//28
f 58//37 57//28 267//28
f 59//37 57//28 58//37
f 218//36 59//37 58//37
f 210//36 59//37 218//36
f 204//35 210//36 218//36
f 211//35 210//36 204//35
f 205//34 211//35 204//35
f 65//34 211//35 205//34
f 66//33 65//34 205//34
f 67//33 65//34 66//33
f 68//32 67//33 66//33
f 69//32 67//33 68//32
f 70//31 69//32 68//32
f 71//31 69//32 70//31
f 239//30 71//31 70//31
f 215//30 71//31 239//30
f 52//26 215//30 239//30
f 51//26 215//30 52//26
f 39//38 227//39 225//39
f 216//38 227//39 39//38
f 241//40 216//38 39//38
f 54//40 216//38 241//40
f 56//41 54//40 241//40
f 41//41 56//41 241//40
f 282//42 56//41 41//41
f 273//42 282//42 41//41
f 60//43 282//42 273//42
f 48//43 60//43 273//42
f 47//44 62//44 60//43
f 48//43 47//44 60//43
f 62//44 284//45 64//45
f 47//44 284//45 62//44
f 64//45 263//46 264//46
f 284//45 263//46 64//45
f 264//46 256//47 245//47
f 263//46 256//47 264//46
f 256//47 253//48 238//48
f 245//47 256//47 238//48
f 253//48 42//49 72//49
f 238//48 253//48 72//49
f 72//49 42//49 225//39
f 227//39 72//49 225//39
f 285//50 53//51 74//51
f 75//50 285//50 74//51
f 252//52 272//53 77//53
f 271//52 272//53 252//52
f 74//51 271//52 252//52
f 53//51 271//52 74//51
f 73//54 285//50 75//50
f 236//54 73//54 75//50
f 214//55 73//54 236//54
f 261//55 214//55 236//54
f 261//55 243//56 214//55
f 262//56 243//56 261//55
f 243//56 198//57 259//57
f 262//56 198//57 243//56
f 259//57 199//58 258//58
f 198//57 199//58 259//57
f 258//58 212//59 63//59
f 199//58 212//59 258//58
f 212//59 84//60 61//60
f 63//59 212//59 61//60
f 84//60 85//61 278//61
f 61//60 84//60 278//61
f 272//53 85//61 77//53
f 278//61 85//61 272//53
f 4//62 235//62 248//63
f 287//63 4//62 248//63
f 8//64 76//64 246//65
f 233//65 8//64 246//65
f 287//63 248//63 76//64
f 8//64 287//63 76//64
f 10//66 78//66 235//62
f 4//62 10//66 235//62
f 12//67 79//67 78//66
f 10//66 12//67 78//66
f 13//68 80//68 79//67
f 12//67 13//68 79//67
f 16//69 81//69 80//68
f 13//68 16//69 80//68
f 249//70 82//70 81//69
f 16//69 249//70 81//69
f 82//70 20//71 83//71
f 249//70 20//71 82//70
f 22//72 213//72 83//71
f 20//71 22//72 83//71
f 279//73 247//73 213//72
f 22//72 279//73 213//72
f 233//65 246//65 247//73
f 279//73 233//65 247//73
usemtl syringeMtl8
f 86//26 87//26 88//27
f 89//27 86//26 88//27
f 90//74 91//74 92//28
f 93//28 90//74 92//28
f 89//27 88//27 91//74
f 90//74 89//27 91//74
f 94//30 95//30 87//26
f 86//26 94//30 87//26
f 96//31 97//31 95//30
f 94//30 96//31 95//30
f 98//32 99//32 97//31
f 96//31 98//32 97//31
f 100//33 101//33 99//32
f 98//32 100//33 99//32
f 102//34 103//34 101//33
f 100//33 102//34 101//33
f 104//75 105//75 103//34
f 102//34 104//75 103//34
f 106//76 107//76 105//75
f 104//75 106//76 105//75
f 108//37 109//37 107//76
f 106//76 108//37 107//76
f 93//28 92//28 109//37
f 108//37 93//28 109//37
usemtl syringeMtl1
f 242//77 255//78 260//78
f 286//78 242//77 260//78
f 219//78 242//77 286//78
f 200//78 219//78 286//78
f 116//78 219//78 200//78
f 201//78 116//78 200//78
f 283//78 116//78 201//78
f 276//77 283//78 201//78
f 120//78 283//78 276//77
f 121//78 120//78 276//77
f 122//79 123//80 124//81
f 125//82 123//80 122//79
f 126//83 124//81 127//84
f 122//79 124//81 126//83
f 124//81 207//85 129//86
f 123//80 207//85 124//81
f 130//87 131//88 132//89
f 232//90 131//88 130//87
f 134//91 132//89 135//92
f 130//87 132//89 134//91
f 132//89 221//93 137//94
f 131//88 221//93 132//89
f 138//95 139//96 140//97
f 222//98 139//96 138//95
f 142//99 140//97 143//100
f 138//95 140//97 142//99
f 140//97 144//101 145//102
f 139//96 144//101 140//97
f 146//103 280//104 148//105
f 281//106 280//104 146//103
f 150//107 148//105 151//108
f 146//103 148//105 150//107
f 148//105 224//109 153//110
f 280//104 224//109 148//105
f 153//110 125//82 122//79
f 224//109 125//82 153//110
f 154//111 122//79 126//83
f 153//110 122//79 154//111
f 155//112 127//84 156//113
f 126//83 127//84 155//112
f 154//111 155//112 157//114
f 126//83 155//112 154//111
f 158//115 154//111 157//114
f 151//108 154//111 158//115
f 159//116 151//108 158//115
f 150//107 151//108 159//116
f 160//117 150//107 159//116
f 161//118 150//107 160//117
f 143//100 161//118 160//117
f 162//119 143//100 160//117
f 163//120 143//100 162//119
f 142//99 143//100 163//120
f 164//121 142//99 163//120
f 165//122 142//99 164//121
f 166//123 165//122 164//121
f 135//92 165//122 166//123
f 134//91 166//123 167//124
f 135//92 166//123 134//91
f 168//125 134//91 167//124
f 169//126 134//91 168//125
f 156//113 169//126 168//125
f 127//84 169//126 156//113
f 127//84 129//86 169//126
f 124//81 129//86 127//84
f 169//126 130//87 134//91
f 129//86 130//87 169//126
f 129//86 232//90 130//87
f 207//85 232//90 129//86
f 137//94 222//98 138//95
f 221//93 222//98 137//94
f 165//122 138//95 142//99
f 137//94 138//95 165//122
f 135//92 137//94 165//122
f 132//89 137//94 135//92
f 145//102 281//106 146//103
f 144//101 281//106 145//102
f 161//118 146//103 150//107
f 145//102 146//103 161//118
f 143//100 145//102 161//118
f 140//97 145//102 143//100
f 151//108 153//110 154//111
f 148//105 153//110 151//108
f 170//127 112//128 171//129
f 113//130 112//128 170//127
f 172//131 171//129 173//132
f 170//127 171//129 172//131
f 171//129 111//133 174//134
f 112//128 111//133 171//129
f 175//135 114//136 176//137
f 110//138 114//136 175//135
f 177//139 176//137 178//140
f 175//135 176//137 177//139
f 176//137 220//141 179//142
f 114//136 220//141 176//137
f 180//143 265//144 181//145
f 118//146 265//144 180//143
f 182//147 181//145 183//148
f 180//143 181//145 182//147
f 181//145 266//149 184//150
f 265//144 266//149 181//145
f 185//151 117//152 186//153
f 119//154 117//152 185//151
f 187//155 186//153 188//156
f 185//151 186//153 187//155
f 186//153 115//157 189//158
f 117//152 115//157 186//153
f 189//158 113//130 170//127
f 115//157 113//130 189//158
f 190//159 170//127 172//131
f 189//158 170//127 190//159
f 223//160 173//132 206//161
f 172//131 173//132 223//160
f 190//159 223//160 152//162
f 172//131 223//160 190//159
f 147//163 190//159 152//162
f 188//156 190//159 147//163
f 149//164 188//156 147//163
f 187//155 188//156 149//164
f 268//165 187//155 149//164
f 191//166 187//155 268//165
f 183//148 191//166 268//165
f 257//167 183//148 268//165
f 141//168 183//148 257//167
f 182//147 183//148 141//168
f 136//169 182//147 141//168
f 192//170 182//147 136//169
f 231//171 192//170 136//169
f 178//140 192//170 231//171
f 177//139 231//171 133//172
f 178//140 231//171 177//139
f 128//173 177//139 133//172
f 193//174 177//139 128//173
f 206//161 193//174 128//173
f 173//132 193//174 206//161
f 173//132 174//134 193//174
f 171//129 174//134 173//132
f 193//174 175//135 177//139
f 174//134 175//135 193//174
f 174//134 110//138 175//135
f 111//133 110//138 174//134
f 179//142 118//146 180//143
f 220//141 118//146 179//142
f 192//170 180//143 182//147
f 179//142 180//143 192//170
f 178//140 179//142 192//170
f 176//137 179//142 178//140
f 184//150 119//154 185//151
f 266//149 119//154 184//150
f 191//166 185//151 187//155
f 184//150 185//151 191//166
f 183//148 184//150 191//166
f 181//145 184//150 183//148
f 188//156 189//158 190//159
f 186//153 189//158 188//156
