# Blender v2.79 (sub 0) OBJ File: 'syringe.blend'
# www.blender.org
mtllib syringe-push.mtl
o sy_Shape_1.001
v 5.687619 1.036203 0.349589
v -0.814047 1.041607 0.343335
v -0.814562 0.855286 0.394213
v 5.687048 0.829660 0.405989
v 5.685986 0.622592 0.351561
v -0.815521 0.668491 0.345114
v -0.816666 0.531272 0.209196
v 5.684716 0.470480 0.200891
v 5.687546 1.186876 0.197475
v -0.814113 1.177528 0.206114
v 5.686847 1.241307 -0.009595
v -0.814744 1.226630 0.019318
v 5.685711 1.184911 -0.216136
v -0.815769 1.175755 -0.167001
v 5.684441 1.032799 -0.366806
v -0.816914 1.038536 -0.302920
v 5.683378 0.825730 -0.421233
v -0.817873 0.851740 -0.352018
v 5.682807 0.619188 -0.364833
v -0.818388 0.665420 -0.301140
v 5.682881 0.468515 -0.212720
v -0.818321 0.529499 -0.163920
v 5.683580 0.414084 -0.005650
v -0.817691 0.480397 0.022877
v 5.928111 1.539907 -0.012083
v 5.929316 1.446055 0.344954
v 5.929443 1.186258 0.607235
v 5.928459 0.830131 0.704481
v 5.926153 1.442666 -0.368210
v 5.926626 0.473093 0.610636
v 5.923963 1.180389 -0.628001
v 5.924437 0.210817 0.350845
v 5.922131 0.823353 -0.721846
v 5.922478 0.113577 -0.005281
v 5.921145 0.467224 -0.624600
v 5.921273 0.207429 -0.362319
v 5.732300 0.829981 0.510788
v 5.781676 1.104970 0.467623
v 5.733016 1.088956 0.440071
v 5.780915 0.829942 0.542724
v 5.699378 0.829882 0.462834
v 5.700029 1.064838 0.398675
v 5.781579 1.305604 0.265070
v 5.732924 1.277877 0.249343
v 5.732048 1.346126 -0.010293
v 5.779135 1.302987 -0.285688
v 5.730623 1.275413 -0.269266
v 5.780648 1.378083 -0.010661
v 5.699150 1.298156 -0.009919
v 5.697857 1.234002 -0.244873
v 5.777444 1.100438 -0.486317
v 5.729031 1.084687 -0.458184
v 5.727699 0.825053 -0.526428
v 5.775270 0.549679 -0.483690
v 5.726983 0.566079 -0.455711
v 5.776030 0.824708 -0.558792
v 5.695204 0.825411 -0.478184
v 5.694555 0.590456 -0.414026
v 5.775367 0.349045 -0.281138
v 5.727075 0.377157 -0.264982
v 5.727951 0.308909 -0.005346
v 5.777810 0.351662 0.269620
v 5.729375 0.379621 0.253626
v 5.776297 0.276566 -0.005407
v 5.695433 0.357137 -0.005431
v 5.696726 0.421291 0.229522
v 5.779501 0.554212 0.470250
v 5.730968 0.570347 0.442545
v 5.698170 0.594328 0.400919
v 5.687047 0.829660 0.405989
v 5.687619 1.036202 0.349589
v 5.685985 0.622591 0.351562
v 5.684715 0.470479 0.200892
v 5.683579 0.414084 -0.005649
v 5.682881 0.468514 -0.212719
v 5.694638 0.419056 -0.240986
v 5.682806 0.619187 -0.364833
v 5.683378 0.825729 -0.421233
v 5.684440 1.032799 -0.366806
v 5.696413 1.060966 -0.416270
v 5.685709 1.184911 -0.216136
v 5.686846 1.241306 -0.009595
v 5.687545 1.186876 0.197476
v 5.699945 1.236238 0.225636
v 5.854088 0.830296 0.677653
v 5.855035 1.172864 0.584110
v 5.800809 0.830228 0.619241
v 5.801675 1.143509 0.533694
v 5.854914 1.422767 0.331816
v 5.853755 1.513045 -0.011626
v 5.851870 1.419508 -0.354191
v 5.800504 1.454609 -0.011112
v 5.798780 1.369068 -0.324392
v 5.849764 1.167218 -0.604090
v 5.848001 0.823777 -0.694362
v 5.847055 0.481209 -0.600818
v 5.795243 0.824266 -0.635481
v 5.794377 0.510984 -0.549934
v 5.847177 0.231306 -0.348525
v 5.848335 0.141028 -0.005083
v 5.850220 0.234565 0.337482
v 5.795548 0.199885 -0.005128
v 5.797272 0.285426 0.308151
v 5.852326 0.486855 0.587381
v 5.799198 0.516148 0.536686
v 5.794488 0.282445 -0.319210
v 5.796854 1.138346 -0.552927
v 5.801563 1.372048 0.302969
v 5.926626 0.473093 0.610636
v 5.924437 0.210817 0.350845
v 5.781676 1.104970 0.467623
v 5.781579 1.305604 0.265070
v 5.926153 1.442666 -0.368210
v 5.923963 1.180389 -0.628001
v 5.777444 1.100438 -0.486317
v 5.776030 0.824708 -0.558792
v 5.780915 0.829942 0.542724
v 5.779501 0.554212 0.470250
v 5.779135 1.302987 -0.285688
v 5.780648 1.378083 -0.010661
v 5.928111 1.539907 -0.012083
v 5.929316 1.446055 0.344954
v 5.775270 0.549679 -0.483690
v 5.929443 1.186258 0.607235
v 5.921145 0.467224 -0.624600
v 5.921273 0.207429 -0.362319
v 5.775367 0.349045 -0.281138
v 5.922478 0.113577 -0.005281
v 5.777810 0.351662 0.269620
v 5.776297 0.276566 -0.005407
v 5.922131 0.823353 -0.721846
v 5.928459 0.830131 0.704481
v -0.813718 1.070163 0.392256
v -0.814311 0.855555 0.450858
v -0.815415 0.640401 0.394306
v -0.816734 0.482350 0.237753
v -0.813794 1.226719 0.234203
v -0.814520 1.283275 0.019048
v -0.815701 1.224677 -0.195558
v -0.817020 1.066625 -0.352111
v -0.818124 0.851471 -0.408663
v -0.818717 0.636864 -0.350062
v -0.818640 0.480308 -0.192008
v -0.817915 0.423752 0.023147
v -1.179670 1.070163 0.392256
v -1.180264 0.855555 0.450858
v -1.181368 0.640401 0.394306
v -1.182687 0.482350 0.237753
v -1.179747 1.226719 0.234203
v -1.180473 1.283275 0.019048
v -1.181653 1.224677 -0.195558
v -1.182973 1.066625 -0.352111
v -1.184077 0.851471 -0.408663
v -1.184670 0.636864 -0.350062
v -1.184593 0.480308 -0.192008
v -1.183868 0.423752 0.023147
v -1.182170 0.853513 0.021097
v -1.182170 0.853513 0.021097
v -1.182170 0.853513 0.021097
v -1.182170 0.853513 0.021097
v -1.182170 0.853513 0.021097
v -1.182170 0.853513 0.021097
v -1.182170 0.853513 0.021097
v -1.182170 0.853513 0.021097
v -1.182170 0.853513 0.021097
v -1.182170 0.853513 0.021097
v -1.182170 0.853513 0.021097
v -1.182170 0.853513 0.021097
v -0.817873 0.851740 -0.352018
v -0.818388 0.665420 -0.301140
v -0.818321 0.529499 -0.163920
v -0.817691 0.480397 0.022877
v -0.816914 1.038536 -0.302920
v -0.816666 0.531272 0.209196
v -0.814744 1.226630 0.019318
v -0.815769 1.175755 -0.167001
v -0.814047 1.041607 0.343335
v -0.814113 1.177528 0.206114
v -0.814562 0.855286 0.394213
v -0.815521 0.668491 0.345114
v -0.818124 0.851471 -0.408663
v -0.818717 0.636864 -0.350062
v -0.818640 0.480308 -0.192008
v -0.817915 0.423752 0.023147
v -0.817915 0.423752 0.023147
v -0.817020 1.066625 -0.352111
v -0.817020 1.066625 -0.352111
v -0.816734 0.482350 0.237753
v -0.816734 0.482350 0.237753
v -0.814520 1.283275 0.019048
v -0.814520 1.283275 0.019048
v -0.815701 1.224677 -0.195558
v -0.815701 1.224677 -0.195558
v -0.813718 1.070163 0.392256
v -0.813794 1.226719 0.234203
v -0.814311 0.855555 0.450858
v -0.814311 0.855555 0.450858
v -0.815415 0.640401 0.394306
v -0.815415 0.640401 0.394306
v -1.184077 0.851471 -0.408663
v -1.184670 0.636864 -0.350062
v -1.184593 0.480308 -0.192008
v -1.183868 0.423752 0.023147
v -1.183868 0.423752 0.023147
v -1.182973 1.066625 -0.352111
v -1.182973 1.066625 -0.352111
v -1.182687 0.482350 0.237753
v -1.182687 0.482350 0.237753
v -1.180473 1.283275 0.019048
v -1.180473 1.283275 0.019048
v -1.181653 1.224677 -0.195558
v -1.181653 1.224677 -0.195558
v -1.179670 1.070163 0.392256
v -1.179747 1.226719 0.234203
v -1.180264 0.855555 0.450858
v -1.180264 0.855555 0.450858
v -1.181368 0.640401 0.394306
v -1.181368 0.640401 0.394306
vn -0.0004 0.5041 0.8636
vn -0.0018 0.0048 1.0000
vn -0.0043 -0.4958 0.8684
vn -0.0074 -0.8636 0.5041
vn -0.0006 0.8684 0.4959
vn -0.0023 1.0000 -0.0047
vn -0.0050 0.8636 -0.5041
vn -0.0081 0.4959 -0.8683
vn -0.0107 -0.0047 -0.9999
vn -0.0120 -0.5040 -0.8636
vn -0.0118 -0.8683 -0.4958
vn -0.0102 -0.9999 0.0048
vn 1.0000 -0.0040 -0.0044
vn 0.0000 -0.5039 -0.8637
vn 0.0000 -0.8685 -0.4956
vn 0.0000 -0.8682 -0.4961
vn 0.0000 -0.5043 -0.8635
vn 0.0000 -0.2542 0.9671
vn 0.0000 0.9647 -0.2634
vn 0.0000 -0.9671 -0.2542
vn 0.0000 0.2634 0.9647
vn 0.0000 0.5043 0.8635
vn 0.0000 0.5039 0.8637
vn 0.0000 0.8682 0.4961
vn 0.0000 0.8685 0.4956
vn 0.0000 0.2542 -0.9671
vn 0.0000 -0.0041 -1.0000
vn 0.0000 -0.0054 -1.0000
vn 0.0000 -0.7037 0.7104
vn 0.0000 0.7037 -0.7104
vn 0.0000 -0.9647 0.2634
vn 0.0000 0.9671 0.2542
vn -1.0000 0.0040 0.0044
vn 1.0000 -0.0039 -0.0044
vn -0.6842 0.0062 0.7293
vn -0.5479 0.4223 0.7221
vn -0.6832 0.3688 0.6302
vn -0.5490 0.0061 0.8358
vn -0.9062 0.0056 0.4228
vn -0.9056 0.2147 0.3657
vn -0.5480 0.7259 0.4157
vn -0.6833 0.6334 0.3631
vn -0.6845 0.7290 -0.0004
vn -0.5517 0.7219 -0.4176
vn -0.6865 0.6300 -0.3631
vn -0.5494 0.8355 -0.0015
vn -0.9064 0.4224 0.0020
vn -0.9075 0.3653 -0.2071
vn -0.5542 0.4154 -0.7212
vn -0.6887 0.3629 -0.6276
vn -0.6906 -0.0007 -0.7232
vn -0.5575 -0.4179 -0.7172
vn -0.6916 -0.3634 -0.6242
vn -0.5564 -0.0017 -0.8309
vn -0.9099 0.0016 -0.4148
vn -0.9105 -0.2075 -0.3576
vn -0.5574 -0.7215 -0.4108
vn -0.6915 -0.6279 -0.3571
vn -0.6902 -0.7235 0.0065
vn -0.5537 -0.7175 0.4225
vn -0.6883 -0.6245 0.3692
vn -0.5560 -0.8311 0.0064
vn -0.9097 -0.4152 0.0060
vn -0.9085 -0.3581 0.2151
vn -0.5511 -0.4111 0.7261
vn -0.6860 -0.3574 0.6337
vn -0.9073 -0.2040 0.3677
vn -0.9772 0.0049 0.2120
vn -0.9770 0.1086 0.1837
vn -0.9778 -0.0991 0.1846
vn -0.9784 -0.1755 0.1090
vn -0.9790 -0.2037 0.0053
vn -0.9793 -0.1764 -0.0986
vn -0.9104 -0.3601 -0.2037
vn -0.9794 -0.1008 -0.1750
vn -0.9791 0.0029 -0.2033
vn -0.9785 0.1068 -0.1760
vn -0.9088 0.2112 -0.3597
vn -0.9779 0.1832 -0.1003
vn -0.9774 0.2115 0.0033
vn -0.9770 0.1842 0.1073
vn -0.9057 0.3673 0.2117
vn -0.5376 0.0061 0.8432
vn -0.3380 0.4748 0.8126
vn -0.5364 0.4260 0.7285
vn -0.3393 0.0058 0.9406
vn -0.8622 0.0058 0.5065
vn -0.8615 0.2568 0.4379
vn -0.3382 0.8169 0.4672
vn -0.5366 0.7323 0.4193
vn -0.5380 0.8429 -0.0016
vn -0.3423 0.8124 -0.4719
vn -0.5403 0.7283 -0.4215
vn -0.3398 0.9405 -0.0030
vn -0.8625 0.5061 0.0014
vn -0.8639 0.4375 -0.2496
vn -0.3452 0.4671 -0.8140
vn -0.5429 0.4191 -0.7277
vn -0.5450 -0.0018 -0.8384
vn -0.3489 -0.4721 -0.8095
vn -0.5462 -0.4217 -0.7237
vn -0.3476 -0.0031 -0.9376
vn -0.8667 0.0010 -0.4988
vn -0.8674 -0.2499 -0.4303
vn -0.3488 -0.8142 -0.4642
vn -0.5460 -0.7280 -0.4145
vn -0.5446 -0.8386 0.0064
vn -0.3446 -0.8097 0.4750
vn -0.5423 -0.7240 0.4263
vn -0.3472 -0.9378 0.0060
vn -0.8665 -0.4992 0.0062
vn -0.8650 -0.4307 0.2572
vn -0.3417 -0.4643 0.8170
vn -0.5398 -0.4148 0.7325
vn -0.8635 -0.2458 0.4403
vn -0.9678 0.0050 0.2516
vn -0.9675 0.1285 0.2179
vn -0.9684 -0.1188 0.2190
vn -0.9692 -0.2098 0.1289
vn -0.9699 -0.2435 0.0054
vn -0.9703 -0.2109 -0.1184
vn -0.8673 -0.4331 -0.2454
vn -0.9703 -0.1208 -0.2093
vn -0.9700 0.0027 -0.2430
vn -0.9694 0.1265 -0.2105
vn -0.8654 0.2527 -0.4327
vn -0.9686 0.2174 -0.1204
vn -0.9679 0.2512 0.0031
vn -0.9675 0.2186 0.1269
vn -0.8616 0.4399 0.2531
usemtl syringeMtl8
s 1
f 1//1 177//1 179//2
f 4//2 1//1 179//2
f 5//3 180//3 174//4
f 8//4 5//3 174//4
f 4//2 179//2 180//3
f 5//3 4//2 180//3
f 9//5 178//5 177//1
f 1//1 9//5 177//1
f 11//6 175//6 178//5
f 9//5 11//6 178//5
f 13//7 176//7 175//6
f 11//6 13//7 175//6
f 15//8 173//8 176//7
f 13//7 15//8 176//7
f 17//9 169//9 173//8
f 15//8 17//9 173//8
f 19//10 170//10 169//9
f 17//9 19//10 169//9
f 21//11 171//11 170//10
f 19//10 21//11 170//10
f 23//12 172//12 171//11
f 21//11 23//12 171//11
f 8//4 174//4 172//12
f 23//12 8//4 172//12
f 7//13 6//13 198//13 188//13
f 24//13 7//13 188//13 184//13
f 22//13 24//13 184//13 183//13
f 14//13 16//13 186//13 192//13
f 3//13 2//13 194//13 196//13
f 16//13 18//13 181//13 186//13
f 6//13 3//13 196//13 198//13
f 10//13 12//13 190//13 195//13
f 2//13 10//13 195//13 194//13
f 20//13 22//13 183//13 182//13
f 12//13 14//13 192//13 190//13
f 18//13 20//13 182//13 181//13
f 142//14 143//15 202//16 201//17
f 199//18 197//18 215//18 217//18
f 191//19 193//19 211//19 209//19
f 143//15 185//20 203//20 202//16
f 134//21 133//22 213//23 216//21
f 133//22 137//24 214//25 213//23
f 187//26 141//27 200//28 205//26
f 189//29 135//29 218//29 208//29
f 141//27 142//14 201//17 200//28
f 139//30 140//30 206//30 212//30
f 144//31 136//31 207//31 204//31
f 137//24 138//32 210//32 214//25
f 149//33 150//33 162//33 161//33
f 154//33 155//33 167//33 166//33
f 147//33 146//33 158//33 159//33
f 150//33 151//33 163//33 162//33
f 155//33 156//33 168//33 167//33
f 146//33 145//33 157//33 158//33
f 145//33 149//33 161//33 157//33
f 152//33 153//33 165//33 164//33
f 148//33 147//33 159//33 160//33
f 153//33 154//33 166//33 165//33
f 151//33 152//33 164//33 163//33
f 156//33 148//33 160//33 168//33
usemtl syringeMtl1
f 121//34 122//13 124//13
f 132//13 121//34 124//13
f 113//13 121//34 132//13
f 109//13 113//13 132//13
f 31//13 113//13 109//13
f 110//13 31//13 109//13
f 131//13 31//13 110//13
f 128//34 131//13 110//13
f 35//13 131//13 128//34
f 36//13 35//13 128//34
f 37//35 38//36 39//37
f 40//38 38//36 37//35
f 41//39 39//37 42//40
f 37//35 39//37 41//39
f 39//37 112//41 44//42
f 38//36 112//41 39//37
f 45//43 46//44 47//45
f 120//46 46//44 45//43
f 49//47 47//45 50//48
f 45//43 47//45 49//47
f 47//45 115//49 52//50
f 46//44 115//49 47//45
f 53//51 54//52 55//53
f 116//54 54//52 53//51
f 57//55 55//53 58//56
f 53//51 55//53 57//55
f 55//53 59//57 60//58
f 54//52 59//57 55//53
f 61//59 129//60 63//61
f 130//62 129//60 61//59
f 65//63 63//61 66//64
f 61//59 63//61 65//63
f 63//61 118//65 68//66
f 129//60 118//65 63//61
f 68//66 40//38 37//35
f 118//65 40//38 68//66
f 69//67 37//35 41//39
f 68//66 37//35 69//67
f 70//68 42//40 71//69
f 41//39 42//40 70//68
f 69//67 70//68 72//70
f 41//39 70//68 69//67
f 73//71 69//67 72//70
f 66//64 69//67 73//71
f 74//72 66//64 73//71
f 65//63 66//64 74//72
f 75//73 65//63 74//72
f 76//74 65//63 75//73
f 58//56 76//74 75//73
f 77//75 58//56 75//73
f 78//76 58//56 77//75
f 57//55 58//56 78//76
f 79//77 57//55 78//76
f 80//78 57//55 79//77
f 81//79 80//78 79//77
f 50//48 80//78 81//79
f 49//47 81//79 82//80
f 50//48 81//79 49//47
f 83//81 49//47 82//80
f 84//82 49//47 83//81
f 71//69 84//82 83//81
f 42//40 84//82 71//69
f 42//40 44//42 84//82
f 39//37 44//42 42//40
f 84//82 45//43 49//47
f 44//42 45//43 84//82
f 44//42 120//46 45//43
f 112//41 120//46 44//42
f 52//50 116//54 53//51
f 115//49 116//54 52//50
f 80//78 53//51 57//55
f 52//50 53//51 80//78
f 50//48 52//50 80//78
f 47//45 52//50 50//48
f 60//58 130//62 61//59
f 59//57 130//62 60//58
f 76//74 61//59 65//63
f 60//58 61//59 76//74
f 58//56 60//58 76//74
f 55//53 60//58 58//56
f 66//64 68//66 69//67
f 63//61 68//66 66//64
f 85//83 27//84 86//85
f 28//86 27//84 85//83
f 87//87 86//85 88//88
f 85//83 86//85 87//87
f 86//85 26//89 89//90
f 27//84 26//89 86//85
f 90//91 29//92 91//93
f 25//94 29//92 90//91
f 92//95 91//93 93//96
f 90//91 91//93 92//95
f 91//93 114//97 94//98
f 29//92 114//97 91//93
f 95//99 125//100 96//101
f 33//102 125//100 95//99
f 97//103 96//101 98//104
f 95//99 96//101 97//103
f 96//101 126//105 99//106
f 125//100 126//105 96//101
f 100//107 32//108 101//109
f 34//110 32//108 100//107
f 102//111 101//109 103//112
f 100//107 101//109 102//111
f 101//109 30//113 104//114
f 32//108 30//113 101//109
f 104//114 28//86 85//83
f 30//113 28//86 104//114
f 105//115 85//83 87//87
f 104//114 85//83 105//115
f 117//116 88//88 111//117
f 87//87 88//88 117//116
f 105//115 117//116 67//118
f 87//87 117//116 105//115
f 62//119 105//115 67//118
f 103//112 105//115 62//119
f 64//120 103//112 62//119
f 102//111 103//112 64//120
f 127//121 102//111 64//120
f 106//122 102//111 127//121
f 98//104 106//122 127//121
f 123//123 98//104 127//121
f 56//124 98//104 123//123
f 97//103 98//104 56//124
f 51//125 97//103 56//124
f 107//126 97//103 51//125
f 119//127 107//126 51//125
f 93//96 107//126 119//127
f 92//95 119//127 48//128
f 93//96 119//127 92//95
f 43//129 92//95 48//128
f 108//130 92//95 43//129
f 111//117 108//130 43//129
f 88//88 108//130 111//117
f 88//88 89//90 108//130
f 86//85 89//90 88//88
f 108//130 90//91 92//95
f 89//90 90//91 108//130
f 89//90 25//94 90//91
f 26//89 25//94 89//90
f 94//98 33//102 95//99
f 114//97 33//102 94//98
f 107//126 95//99 97//103
f 94//98 95//99 107//126
f 93//96 94//98 107//126
f 91//93 94//98 93//96
f 99//106 34//110 100//107
f 126//105 34//110 99//106
f 106//122 100//107 102//111
f 99//106 100//107 106//122
f 98//104 99//106 106//122
f 96//101 99//106 98//104
f 103//112 104//114 105//115
f 101//109 104//114 103//112
